<svg width="344" height="83" viewBox="0 0 344 83" fill="none" xmlns="http://www.w3.org/2000/svg">
<path d="M16.1698 34.0476V8.41556H0.425781V0.447562H43.5298V8.41556H27.7378V34.0476H16.1698ZM73.0884 0.783563L90.9444 33.9516H79.6644L76.5444 27.9036H55.0298C53.5328 27.9036 52.1612 28.7394 51.4749 30.0697L50.5898 31.7854C49.9035 33.1158 48.5319 33.9516 47.035 33.9516H44.9281C41.9035 33.9516 39.9731 30.7242 41.4039 28.0594L56.0484 0.783563H73.0884ZM59.489 14.5821C58.1159 17.2443 60.0486 20.4156 63.044 20.4156H72.7044L66.3684 8.22356H62.7684L59.489 14.5821ZM121.795 33.9996L107.683 21.4716H104.179V33.9996H93.7633V0.831562H104.179V11.4396H108.115L121.267 0.831562H134.515L115.363 15.9996L135.427 33.9996H121.795ZM138.435 0.351562H177.075V7.98356H149.763V12.9756H176.451V20.6556H149.763V26.1756H177.603V33.9996H138.435V0.351562ZM225.763 34.0476C223.554 34.0476 221.763 32.2567 221.763 30.0476V12.4156C221.763 10.2064 219.973 8.41556 217.763 8.41556H210.003C207.803 8.41556 206.019 6.63187 206.019 4.43156V4.43156C206.019 2.23126 207.803 0.447562 210.003 0.447562H245.139C247.34 0.447562 249.123 2.23126 249.123 4.43156V4.43156C249.123 6.63187 247.34 8.41556 245.139 8.41556H237.331C235.122 8.41556 233.331 10.2064 233.331 12.4156V30.0476C233.331 32.2567 231.541 34.0476 229.331 34.0476H225.763ZM257.192 33.9996C254.038 33.9996 251.48 31.4422 251.48 28.2876V6.20755C251.48 3.05291 254.038 0.495564 257.192 0.495564V0.495564C260.347 0.495564 262.904 3.05291 262.904 6.20755V6.59156C262.904 9.95829 265.634 12.6876 269 12.6876H281.336C284.703 12.6876 287.432 9.95829 287.432 6.59157V6.23156C287.432 3.06366 290.001 0.495564 293.168 0.495564V0.495564C296.336 0.495564 298.904 3.06366 298.904 6.23156V28.2636C298.904 31.4315 296.336 33.9996 293.168 33.9996V33.9996C290.001 33.9996 287.432 31.4315 287.432 28.2636V27.3996C287.432 23.7545 284.478 20.7996 280.832 20.7996H269.504C265.859 20.7996 262.904 23.7545 262.904 27.3996V28.2876C262.904 31.4422 260.347 33.9996 257.192 33.9996V33.9996ZM304.685 0.351562H343.325V7.98356H316.013V12.9756H342.701V20.6556H316.013V26.1756H343.853V33.9996H304.685V0.351562ZM94.938 81.3108C94.6472 82.0951 93.8991 82.6156 93.0627 82.6156H83.2708C82.482 82.6156 81.767 82.152 81.445 81.432L68.4017 52.264C67.8101 50.941 68.7782 49.4476 70.2275 49.4476H78.1347C78.9473 49.4476 79.679 49.9392 79.9863 50.6914L86.873 67.5533C87.5592 69.2334 89.9483 69.2046 90.5938 67.5084L94.8759 56.2562C95.1711 55.4804 95.9149 54.9676 96.7451 54.9676H108.644C109.442 54.9676 110.163 55.4417 110.48 56.174L115.277 67.2705C115.979 68.8947 118.289 68.8741 118.962 67.2376L125.769 50.6869C126.077 49.937 126.808 49.4476 127.618 49.4476H137.414L123.301 81.4232C122.981 82.1479 122.263 82.6156 121.471 82.6156H112.762C111.939 82.6156 111.201 82.1121 110.9 81.3466L104.018 63.82C103.808 63.2865 103.293 62.9356 102.72 62.9356V62.9356C102.137 62.9356 101.616 63.2983 101.413 63.8449L94.938 81.3108ZM167.283 49.7836L185.139 82.9516H173.859L170.739 76.9036H149.225C147.728 76.9036 146.356 77.7394 145.67 79.0697L144.785 80.7854C144.099 82.1158 142.727 82.9516 141.23 82.9516H139.123C136.099 82.9516 134.168 79.7242 135.599 77.0594L150.243 49.7836H167.283ZM153.684 63.5821C152.311 66.2443 154.244 69.4156 157.239 69.4156H166.899L160.563 57.2236H156.963L153.684 63.5821ZM187.238 82.9996V49.3516H218.63C223.526 49.3516 226.982 50.0236 228.998 51.4636C231.062 52.9036 232.07 54.7756 232.07 57.0316V57.6556C232.07 58.6636 231.83 59.6236 231.446 60.4396C231.014 61.2556 230.486 61.9276 229.766 62.4076C229.094 62.9356 228.47 63.3196 227.894 63.5596C227.366 63.8476 226.79 64.0876 226.214 64.2316C227.03 64.3756 227.798 64.6636 228.566 64.9996C229.334 65.3356 230.15 65.8156 231.062 66.3916C231.974 67.0156 232.742 67.8796 233.27 68.9836C233.846 70.0396 234.134 71.2876 234.134 72.6796V73.3036C234.134 79.7836 229.046 82.9996 218.918 82.9996H187.238ZM198.71 56.4556V61.9276H216.662C219.35 61.9276 220.646 61.0156 220.646 59.1916V59.0956C220.646 57.3196 219.35 56.4556 216.662 56.4556H198.71ZM217.67 69.0796H198.71V75.6556H217.67C219.35 75.6556 220.55 75.3196 221.222 74.6476C221.846 74.0236 222.182 73.2556 222.182 72.3436V72.1996C222.182 70.0876 220.694 69.0796 217.67 69.0796ZM238.536 49.3516H277.176V56.9836H249.864V61.9756H276.552V69.6556H249.864V75.1756H277.704V82.9996H238.536V49.3516Z" fill="#679215"/>
</svg>
