<svg width="612" height="36" viewBox="0 0 612 36" fill="none" xmlns="http://www.w3.org/2000/svg">
<path d="M22.0408 35.6231C18.3928 35.6231 15.1768 35.3351 12.4888 34.7591C9.75281 34.1831 7.64081 33.5111 6.15281 32.6951C4.71281 31.8791 3.51281 30.8711 2.64881 29.7191C1.78481 28.5671 1.20881 27.5111 0.968812 26.5991C0.728812 25.6871 0.632812 24.6791 0.632812 23.6231V23.6231C0.632812 23.358 0.847716 23.1431 1.11281 23.1431H6.81047C10.0607 23.1431 12.7684 26.3049 15.7785 27.5311C17.3168 28.1578 19.4813 28.4711 22.4248 28.4711H25.0648C27.3688 28.4711 28.3288 28.3271 29.8648 28.1351C31.3528 27.9431 32.4568 27.7031 33.1288 27.3191C33.8488 26.9351 34.2808 26.5991 34.5208 26.2151C34.7608 25.8311 34.8568 25.3991 34.8568 24.8711C34.8568 24.1511 34.6648 23.5751 34.2808 23.1431C33.8968 22.7591 32.9368 22.3751 31.4968 22.0391C30.0568 21.7511 27.9928 21.5591 25.2568 21.5111L21.6568 21.4151L18.9688 21.3671C7.06481 21.0791 1.11281 17.7671 1.11281 11.5271V11.0951C1.11281 10.0391 1.25681 9.03109 1.54481 8.11909C1.83281 7.20709 2.40881 6.29509 3.32081 5.33509C4.18481 4.42309 5.33681 3.65509 6.77681 3.03109C8.21681 2.40709 10.1368 1.87909 12.5848 1.49509C14.9848 1.06309 17.8168 0.871094 21.0328 0.871094H24.4408C27.7528 0.871094 30.7288 1.06309 33.2728 1.49509C35.8648 1.92709 37.8808 2.45509 39.4168 3.12709C40.9528 3.79909 42.2008 4.6151 43.1608 5.5751C44.1208 6.5351 44.7928 7.49509 45.1288 8.40709C45.5128 9.36709 45.7048 10.3751 45.7048 11.4791V11.4791C45.7048 11.7177 45.5114 11.9111 45.2728 11.9111H34.7576C34.1913 11.9111 33.7231 11.5249 33.5128 10.9991V10.9991C33.4168 10.7591 33.1288 10.4231 32.6968 9.99109C32.2648 9.55909 31.7368 9.22309 31.0168 8.93509C30.3448 8.69509 29.2888 8.45509 27.9448 8.21509C26.6008 8.02309 25.5448 7.92709 23.7208 7.92709H22.0408C19.2568 7.92709 17.5288 8.07109 16.0408 8.35909C14.6008 8.69509 13.6888 9.03109 13.4008 9.36709C13.0648 9.70309 12.9208 10.1831 12.9208 10.8071C12.9208 11.3831 13.0648 11.8151 13.4488 12.1991C13.7848 12.5351 14.6008 12.8711 15.8968 13.2071C17.1928 13.4951 19.0168 13.6391 21.3688 13.6871L24.0568 13.7351L27.5128 13.7831C34.3768 13.8791 39.2728 14.7431 42.2968 16.3271C45.3688 17.9111 46.8568 20.3591 46.8568 23.7671V24.3911C46.8568 25.6391 46.7128 26.7431 46.4248 27.7031C46.1368 28.6631 45.5128 29.6711 44.6008 30.7271C43.6888 31.7351 42.4888 32.5991 40.9528 33.2711C39.4168 33.9911 37.3528 34.5191 34.7128 34.9511C32.0728 35.4311 28.9528 35.6231 25.4008 35.6231H22.0408ZM76.986 1.78309C80.2972 1.78309 83.341 3.60134 84.9106 6.51695L96.2979 27.6697C98.0696 30.9607 95.686 34.9511 91.9483 34.9511V34.9511C90.0997 34.9511 88.4057 33.9189 87.5582 32.276L87.3782 31.9271C86.4201 30.0699 84.5053 28.9031 82.4155 28.9031H65.2689C63.1791 28.9031 61.2643 30.0699 60.3062 31.9271L60.1217 32.2848C59.2769 33.9223 57.5886 34.9511 55.746 34.9511V34.9511C52.0231 34.9511 49.6471 30.9786 51.4082 27.6985L62.7758 6.52578C64.3439 3.60526 67.3904 1.78309 70.7052 1.78309H76.986ZM69.466 14.2181C67.7721 17.5026 70.1564 21.4151 73.852 21.4151V21.4151C77.5543 21.4151 79.9382 17.4897 78.231 14.2045L76.4708 10.8175C75.9617 9.83782 74.9494 9.22309 73.8454 9.22309V9.22309C72.738 9.22309 71.7233 9.84146 71.2157 10.8257L69.466 14.2181ZM130.035 29.8097C128.478 32.7651 125.413 34.6151 122.072 34.6151H118.64C115.397 34.6151 112.404 32.8701 110.807 30.0474L99.312 9.73274C97.2178 6.03188 99.8914 1.44709 104.144 1.44709V1.44709C106.176 1.44709 108.045 2.55708 109.018 4.34097L112.582 10.878C116.044 17.2267 125.201 17.107 128.496 10.6698L131.771 4.26915C132.658 2.53691 134.44 1.44709 136.386 1.44709V1.44709C140.288 1.44709 142.791 5.59489 140.972 9.04694L130.035 29.8097ZM147.85 10.3511C147.85 5.38053 151.879 1.35109 156.85 1.35109H182.674C184.781 1.35109 186.49 3.05958 186.49 5.16709V5.16709C186.49 7.27461 184.781 8.9831 182.674 8.9831H161.674C160.295 8.9831 159.178 10.1006 159.178 11.4791V11.4791C159.178 12.8576 160.295 13.9751 161.674 13.9751H182.026C184.147 13.9751 185.866 15.6943 185.866 17.8151V17.8151C185.866 19.9359 184.147 21.6551 182.026 21.6551H161.938C160.414 21.6551 159.178 22.8908 159.178 24.4151V24.4151C159.178 25.9394 160.414 27.1751 161.938 27.1751H183.106C185.266 27.1751 187.018 28.9266 187.018 31.0871V31.0871C187.018 33.2476 185.266 34.9991 183.106 34.9991H156.85C151.879 34.9991 147.85 30.9697 147.85 25.9991V10.3511ZM236.962 35.0471C233.767 35.0471 231.178 32.4575 231.178 29.2631V17.2871C231.178 12.9395 227.653 9.4151 223.306 9.4151H219.418C217.218 9.4151 215.434 7.6314 215.434 5.4311V5.4311C215.434 3.23079 217.218 1.44709 219.418 1.44709H254.554C256.754 1.44709 258.538 3.23079 258.538 5.4311V5.4311C258.538 7.6314 256.754 9.4151 254.554 9.4151H250.642C246.281 9.4151 242.746 12.9503 242.746 17.3111V29.2631C242.746 32.4575 240.156 35.0471 236.962 35.0471V35.0471ZM267.608 34.9991C264.453 34.9991 261.896 32.4417 261.896 29.2871V7.2071C261.896 4.05244 264.453 1.49509 267.608 1.49509V1.49509C270.762 1.49509 273.32 4.05245 273.32 7.2071V7.59109C273.32 10.9578 276.049 13.6871 279.416 13.6871H291.752C295.119 13.6871 297.848 10.9578 297.848 7.5911V7.23111C297.848 4.0632 300.416 1.49509 303.584 1.49509V1.49509C306.752 1.49509 309.32 4.06319 309.32 7.2311V29.2631C309.32 32.431 306.752 34.9991 303.584 34.9991V34.9991C300.416 34.9991 297.848 32.431 297.848 29.2631V28.3991C297.848 24.754 294.893 21.7991 291.248 21.7991H279.92C276.275 21.7991 273.32 24.754 273.32 28.3991V29.2871C273.32 32.4417 270.762 34.9991 267.608 34.9991V34.9991ZM315.1 10.3511C315.1 5.38053 319.129 1.35109 324.1 1.35109H349.924C352.031 1.35109 353.74 3.05958 353.74 5.16709V5.16709C353.74 7.27461 352.031 8.9831 349.924 8.9831H328.924C327.545 8.9831 326.428 10.1006 326.428 11.4791V11.4791C326.428 12.8576 327.545 13.9751 328.924 13.9751H349.276C351.397 13.9751 353.116 15.6943 353.116 17.8151V17.8151C353.116 19.9359 351.397 21.6551 349.276 21.6551H329.188C327.664 21.6551 326.428 22.8908 326.428 24.4151V24.4151C326.428 25.9394 327.664 27.1751 329.188 27.1751H350.356C352.516 27.1751 354.268 28.9266 354.268 31.0871V31.0871C354.268 33.2476 352.516 34.9991 350.356 34.9991H324.1C319.129 34.9991 315.1 30.9697 315.1 25.9991V10.3511ZM393.364 34.9991C388.393 34.9991 384.364 30.9697 384.364 25.9991V10.3511C384.364 5.38053 388.393 1.35109 393.364 1.35109H415.756C420.652 1.35109 424.108 2.02309 426.124 3.46309C428.188 4.90309 429.196 6.77509 429.196 9.03109V9.6551C429.196 10.6631 428.956 11.6231 428.572 12.4391C428.14 13.2551 427.612 13.9271 426.892 14.4071C426.22 14.9351 425.596 15.3191 425.02 15.5591V15.5591C424.654 15.7588 424.689 16.5899 425.077 16.7426C425.283 16.8235 425.487 16.9096 425.692 16.9991C426.46 17.3351 427.276 17.8151 428.188 18.3911C429.1 19.0151 429.868 19.8791 430.396 20.9831C430.972 22.0391 431.26 23.2871 431.26 24.6791V25.3031C431.26 31.7831 426.172 34.9991 416.044 34.9991H393.364ZM398.572 8.4551C397.061 8.4551 395.836 9.68004 395.836 11.1911V11.1911C395.836 12.7021 397.061 13.9271 398.572 13.9271H413.788C416.476 13.9271 417.772 13.0151 417.772 11.1911V11.0951C417.772 9.31909 416.476 8.4551 413.788 8.4551H398.572ZM414.796 21.0791H399.124C397.308 21.0791 395.836 22.5512 395.836 24.3671V24.3671C395.836 26.183 397.308 27.6551 399.124 27.6551H414.796C416.476 27.6551 417.676 27.3191 418.348 26.6471C418.972 26.0231 419.308 25.2551 419.308 24.3431V24.1991C419.308 22.0871 417.82 21.0791 414.796 21.0791ZM447.134 24.3431C447.134 25.8807 448.38 27.1271 449.918 27.1271H557.438C559.612 27.1271 561.374 28.8893 561.374 31.0631V31.0631C561.374 33.2369 559.612 34.9991 557.438 34.9991H444.662C439.691 34.9991 435.662 30.9697 435.662 25.9991V10.0631C435.662 5.09254 439.691 1.06309 444.662 1.06309H556.982C559.116 1.06309 560.846 2.79307 560.846 4.92709V4.92709C560.846 7.06112 559.116 8.79109 556.982 8.79109H449.63C448.251 8.79109 447.134 9.90859 447.134 11.2871V11.2871C447.134 12.6656 448.251 13.7831 449.63 13.7831H556.334C558.481 13.7831 560.222 15.5238 560.222 17.6711V17.6711C560.222 19.8184 558.481 21.5591 556.334 21.5591H449.918C448.38 21.5591 447.134 22.8055 447.134 24.3431V24.3431ZM586.65 35.6231C583.002 35.6231 579.786 35.3351 577.098 34.7591C574.362 34.1831 572.25 33.5111 570.762 32.6951C569.322 31.8791 568.122 30.8711 567.258 29.7191C566.394 28.5671 565.818 27.5111 565.578 26.5991C565.338 25.6871 565.242 24.6791 565.242 23.6231V23.6231C565.242 23.358 565.457 23.1431 565.722 23.1431H571.419C574.67 23.1431 577.377 26.3049 580.387 27.5311C581.926 28.1578 584.09 28.4711 587.034 28.4711H589.674C591.978 28.4711 592.938 28.3271 594.474 28.1351C595.962 27.9431 597.066 27.7031 597.738 27.3191C598.458 26.9351 598.89 26.5991 599.13 26.2151C599.37 25.8311 599.466 25.3991 599.466 24.8711C599.466 24.1511 599.274 23.5751 598.89 23.1431C598.506 22.7591 597.546 22.3751 596.106 22.0391C594.666 21.7511 592.602 21.5591 589.866 21.5111L586.266 21.4151L583.578 21.3671C571.674 21.0791 565.722 17.7671 565.722 11.5271V11.0951C565.722 10.0391 565.866 9.03109 566.154 8.11909C566.442 7.20709 567.018 6.29509 567.93 5.33509C568.794 4.42309 569.946 3.65509 571.386 3.03109C572.826 2.40709 574.746 1.87909 577.194 1.49509C579.594 1.06309 582.426 0.871094 585.642 0.871094H589.05C592.362 0.871094 595.338 1.06309 597.882 1.49509C600.474 1.92709 602.49 2.45509 604.026 3.12709C605.562 3.79909 606.81 4.6151 607.77 5.5751C608.73 6.5351 609.402 7.49509 609.738 8.40709C610.122 9.36709 610.314 10.3751 610.314 11.4791V11.4791C610.314 11.7177 610.12 11.9111 609.882 11.9111H599.367C598.8 11.9111 598.332 11.5249 598.122 10.9991V10.9991C598.026 10.7591 597.738 10.4231 597.306 9.99109C596.874 9.55909 596.346 9.22309 595.626 8.93509C594.954 8.69509 593.898 8.45509 592.554 8.21509C591.21 8.02309 590.154 7.92709 588.33 7.92709H586.65C583.866 7.92709 582.138 8.07109 580.65 8.35909C579.21 8.69509 578.298 9.03109 578.01 9.36709C577.674 9.70309 577.53 10.1831 577.53 10.8071C577.53 11.3831 577.674 11.8151 578.058 12.1991C578.394 12.5351 579.21 12.8711 580.506 13.2071C581.802 13.4951 583.626 13.6391 585.978 13.6871L588.666 13.7351L592.122 13.7831C598.986 13.8791 603.882 14.7431 606.906 16.3271C609.978 17.9111 611.466 20.3591 611.466 23.7671V24.3911C611.466 25.6391 611.322 26.7431 611.034 27.7031C610.746 28.6631 610.122 29.6711 609.21 30.7271C608.298 31.7351 607.098 32.5991 605.562 33.2711C604.026 33.9911 601.962 34.5191 599.322 34.9511C596.682 35.4311 593.562 35.6231 590.01 35.6231H586.65Z" fill="#679215"/>
</svg>
